<?xml version="1.0" encoding="utf-8"?>
<!-- Generator: Adobe Illustrator 21.1.0, SVG Export Plug-In . SVG Version: 6.00 Build 0)  -->
<svg version="1.1" id="Layer_1" xmlns="http://www.w3.org/2000/svg" xmlns:xlink="http://www.w3.org/1999/xlink" x="0px" y="0px"
	 viewBox="0 0 1920 3140" style="enable-background:new 0 0 1920 3140;" xml:space="preserve">
<style type="text/css">
	.st0{fill:#5683FF;}
	.st1{fill:#FFCA2A;}
	.st2{display:none;fill:#577AFF;}
</style>
<g>
	<g>
		<path class="st0" d="M2190.1,71.9c-43.1-2.1-92-1.8-145.3,3.4c-31.4,3-60.7,7.3-87.8,12.4c-19.8,5.8-47.6,14.8-79.6,28.6
			c-43.6,18.7-284.4,124-357.4,329.6c-71.7,201.8,78,371.9-161,503.3C954.7,1171.6,670.7,379,18,804.9
			c-552.6,360.6-480.3-176.2-367.6-528.2C-591.8,382.8-869.7,499-878,521.5c-114.3,310,162.8,795.2,551.3,846.5
			c227.6,30.1,413.9-103.6,476.9-153.3c214-172.5,379.7-196.4,488.6-188.7c354.8,25.1,540.4,391.6,859.9,338.8
			c42.5-7,85.2-26.4,129-62c362.1-295.1-489.5-962.4,553.1-1067.7C2361.7,216.9,2324.4,151.9,2190.1,71.9z"/>
	</g>
</g>
<path class="st1" d="M938.4,876c-24.8,49.2-101.8,51.4-131.5,4.8c-29.9-47,3.3-98.7,56.2-103.3c47.2-4.1,96.1,43.6,78.3,91.5
	C940.6,871.5,939.6,873.8,938.4,876z"/>
<rect class="st2" width="1920" height="2139"/>
</svg>
